<?xml version="1.0" encoding="utf-8"?><!-- Uploaded to: SVG Repo, www.svgrepo.com, Generator: SVG Repo Mixer Tools -->
<svg fill="#000000" width="800px" height="800px" viewBox="0 0 24 24" id="curve-arrow-left-9" data-name="Flat Color" xmlns="http://www.w3.org/2000/svg" class="icon flat-color"><path id="secondary" d="M17.45,8.11a1,1,0,0,0-1.34.44A9.82,9.82,0,0,1,7.29,14H5.41l1.3-1.29a1,1,0,0,0-1.42-1.42l-3,3a1,1,0,0,0,0,1.42l3,3a1,1,0,0,0,1.42,0,1,1,0,0,0,0-1.42L5.41,16H7.29a11.78,11.78,0,0,0,10.6-6.55A1,1,0,0,0,17.45,8.11Z" style="fill: rgb(44, 169, 188);"></path><path id="primary" d="M20,21H12a1,1,0,0,1,0-2h8V5H4V8A1,1,0,0,1,2,8V5A2,2,0,0,1,4,3H20a2,2,0,0,1,2,2V19A2,2,0,0,1,20,21Z" style="fill: rgb(0, 0, 0);"></path></svg>